<?xml version="1.0" standalone="no"?>
<!DOCTYPE svg PUBLIC "-//W3C//DTD SVG 20010904//EN"
 "http://www.w3.org/TR/2001/REC-SVG-20010904/DTD/svg10.dtd">
<svg version="1.0" xmlns="http://www.w3.org/2000/svg"
 width="512.000000pt" height="512.000000pt" viewBox="0 0 512.000000 512.000000"
 preserveAspectRatio="xMidYMid meet">
<metadata>
Created by potrace 1.11, written by Peter Selinger 2001-2013
</metadata>
<g transform="translate(0.000000,512.000000) scale(0.100000,-0.100000)"
fill="#000000" stroke="none">
<path d="M880 4484 c-215 -47 -386 -216 -468 -464 -27 -81 -30 -112 -13 -143
32 -60 87 -55 341 29 258 86 491 241 598 396 57 83 35 145 -60 166 -29 7 -64
15 -78 18 -55 13 -256 12 -320 -2z"/>
<path d="M3947 4484 c-135 -24 -175 -54 -163 -119 9 -47 92 -148 182 -220 27
-22 51 -42 54 -45 8 -8 89 -60 94 -60 2 0 31 -15 64 -34 33 -18 106 -52 163
-74 106 -41 318 -102 341 -98 50 9 77 33 85 76 4 24 -36 149 -73 224 -93 187
-245 313 -424 350 -87 18 -227 18 -323 0z"/>
<path d="M1306 3844 c-312 -50 -642 -269 -865 -575 -34 -46 -66 -89 -71 -96
-6 -7 -10 -15 -10 -17 0 -3 -18 -35 -40 -71 -22 -36 -40 -68 -40 -71 0 -4 -15
-38 -34 -78 -66 -139 -108 -266 -141 -428 -2 -9 -7 -38 -11 -65 -3 -26 -9 -57
-11 -68 -9 -41 -10 -312 -2 -375 24 -178 55 -288 120 -428 91 -198 220 -341
396 -440 66 -37 108 -53 243 -94 77 -23 307 -16 415 12 111 28 244 84 344 145
194 117 374 296 512 510 35 54 89 144 89 149 0 2 20 46 45 98 25 51 45 99 45
106 0 7 4 20 9 30 14 25 48 136 67 217 21 94 22 99 30 164 3 31 8 65 10 76 6
27 5 282 -1 320 -2 17 -9 62 -14 101 -34 233 -152 477 -305 630 -206 206 -485
295 -780 248z m361 -443 c201 -103 189 -399 -20 -491 -179 -79 -383 64 -372
261 11 200 216 321 392 230z"/>
<path d="M3530 3849 c-247 -36 -472 -184 -617 -406 -87 -133 -156 -310 -178
-458 -4 -22 -10 -56 -14 -75 -20 -93 -8 -383 23 -555 32 -175 131 -426 237
-602 219 -363 531 -609 889 -704 122 -32 330 -32 449 0 377 100 643 432 714
891 16 102 20 346 7 426 -4 27 -13 83 -20 124 -12 70 -60 250 -79 295 -5 11
-21 52 -37 90 -133 335 -401 654 -692 824 -105 61 -263 123 -352 137 -14 2
-36 7 -49 10 -42 9 -225 12 -281 3z m173 -448 c82 -40 147 -144 147 -234 0
-205 -206 -340 -386 -252 -104 51 -161 152 -152 270 16 193 213 302 391 216z"/>
<path d="M2210 1117 c-59 -15 -78 -83 -38 -140 57 -84 161 -149 287 -181 63
-15 229 -17 292 -2 133 30 257 114 299 202 20 41 21 45 5 78 -13 27 -25 37
-50 42 -49 9 -760 10 -795 1z"/>
</g>
</svg>
