<svg xmlns="http://www.w3.org/2000/svg" viewBox="0 0 419.15 112.59" width="188">
  <defs>
    <style>
      .cls-1 {
        fill: #f9ac00;
      }

      .cls-2 {
        fill: #fff;
      }
    </style>
  </defs>
  <title>logo</title>
  <g id="Слой_2" data-name="Слой 2">
    <g id="Слой_1-2" data-name="Слой 1">
      <g>
        <path class="cls-1" d="M0,101.2,32.84,20.93H56.21L89.16,101.2H62.82l-5.7-14.94h-26L25.31,101.2ZM38.19,67.91H49.94L44.12,49Z"/>
        <path class="cls-1" d="M95.2,101.2V21.39h24.28l17.45,28.39,17.55-28.39h24.17V101.2H155.17V56.5l-11.29,19H130.66l-11.75-19v44.7Z"/>
        <path class="cls-1" d="M187,101.2V83.87l34.89-41.39H188V21.39h66.36V38.6L219.58,80.11h36.6V101.2Z"/>
      </g>
      <path class="cls-2" d="M334.24,75.54c-9.49,22.55-31.2,34.94-48.5,27.66s-23.63-31.45-14.14-54,31.2-34.94,48.49-27.67S343.72,53,334.24,75.54ZM315.3,32.92a8.29,8.29,0,1,0,4.43,10.86A8.3,8.3,0,0,0,315.3,32.92Z"/>
      <path class="cls-2" d="M366.24,21.52c17.3-7.27,39,5.11,48.5,27.67s3.15,46.74-14.15,54-39-5.11-48.49-27.66S348.94,28.8,366.24,21.52Zm.37,22.26A8.29,8.29,0,1,0,371,32.92,8.29,8.29,0,0,0,366.61,43.78Z"/>
      <path class="cls-2" d="M380.83,5.1c2.59,4.07,9.42,11.25,26.47,15a2.63,2.63,0,0,0,3.13-3.2c-1.81-7.15-7.94-21-28-15.76A2.63,2.63,0,0,0,380.83,5.1Z"/>
      <path class="cls-2" d="M306.44,5.1c-2.59,4.07-9.42,11.25-26.48,15a2.63,2.63,0,0,1-3.12-3.2c1.8-7.15,7.94-21,28-15.76A2.64,2.64,0,0,1,306.44,5.1Z"/>
      <path class="cls-2" d="M333.05,102.25a2.51,2.51,0,0,0-2.2,3.7c2.11,3.88,7.45,6.64,13.7,6.64s11.6-2.76,13.71-6.64a2.51,2.51,0,0,0-2.2-3.7Z"/>
    </g>
  </g>
</svg>
